<?xml version="1.0" encoding="utf-8"?>
<!-- Generator: Adobe Illustrator 23.0.5, SVG Export Plug-In . SVG Version: 6.00 Build 0)  -->
<svg version="1.1" id="Layer_1" xmlns="http://www.w3.org/2000/svg" xmlns:xlink="http://www.w3.org/1999/xlink" x="0px" y="0px"
	 viewBox="0 0 600 600" style="enable-background:new 0 0 600 600;" xml:space="preserve">
<style type="text/css">
	.st0{fill:url(#SVGID_1_);}
	.st1{fill:url(#SVGID_2_);}
	.st2{fill:url(#SVGID_3_);}
	.st3{fill:url(#SVGID_4_);}
	.st4{fill:url(#SVGID_5_);}
	.st5{fill:url(#SVGID_6_);}
	.st6{fill:#039BE5;}
</style>
<linearGradient id="SVGID_1_" gradientUnits="userSpaceOnUse" x1="463.6541" y1="-18.1157" x2="234.2656" y2="379.1967">
	<stop  offset="0" style="stop-color:#039BE5"/>
	<stop  offset="0.4463" style="stop-color:#0399E5"/>
	<stop  offset="0.6631" style="stop-color:#0391E5"/>
	<stop  offset="0.8303" style="stop-color:#0384E5"/>
	<stop  offset="0.9714" style="stop-color:#0372E5"/>
	<stop  offset="1" style="stop-color:#036DE5"/>
</linearGradient>
<path class="st0" d="M245.9,312.9L237.4,432c12.1,0,17.4-5.2,23.7-11.5l56.8-54.3l117.7,86.2c21.6,12,36.8,5.7,42.6-19.9l77.3-362.1
	l0,0c6.8-31.9-11.5-44.4-32.6-36.6L68.8,207.8c-31,12-30.5,29.3-5.3,37.1l116.1,36.1l269.7-168.8c12.7-8.4,24.2-3.8,14.7,4.7
	L245.9,312.9z"/>
<linearGradient id="SVGID_2_" gradientUnits="userSpaceOnUse" x1="55.2393" y1="402.36" x2="95.2339" y2="333.0873" gradientTransform="matrix(0.946 0.3243 -0.3243 0.946 151.7915 -46.994)">
	<stop  offset="0" style="stop-color:#039BE5"/>
	<stop  offset="0.286" style="stop-color:#0393E5"/>
	<stop  offset="0.7226" style="stop-color:#037EE5"/>
	<stop  offset="1" style="stop-color:#036DE5"/>
</linearGradient>
<path class="st1" d="M75.1,352.4L75.1,352.4c-1.3-4.7,1.3-12,5.9-16.3l40.6-38.5c4.6-4.4,9.4-4.1,10.7,0.6l0,0
	c1.3,4.7-1.3,12-5.9,16.3L85.8,353C81.2,357.3,76.4,357.1,75.1,352.4z"/>
<linearGradient id="SVGID_3_" gradientUnits="userSpaceOnUse" x1="311.4212" y1="451.0818" x2="351.4159" y2="381.809" gradientTransform="matrix(0.946 0.3243 -0.3243 0.946 151.7915 -46.994)">
	<stop  offset="0" style="stop-color:#039BE5"/>
	<stop  offset="0.286" style="stop-color:#0393E5"/>
	<stop  offset="0.7226" style="stop-color:#037EE5"/>
	<stop  offset="1" style="stop-color:#036DE5"/>
</linearGradient>
<path class="st2" d="M301.7,481.6L301.7,481.6c-1.3-4.7,1.3-12,5.9-16.3l40.6-38.5c4.6-4.4,9.4-4.1,10.7,0.6l0,0
	c1.3,4.7-1.3,12-5.9,16.3l-40.6,38.5C307.8,486.5,303,486.2,301.7,481.6z"/>
<linearGradient id="SVGID_4_" gradientUnits="userSpaceOnUse" x1="74.4324" y1="487.8492" x2="133.3139" y2="385.8633" gradientTransform="matrix(0.9551 0.2962 -0.2962 0.9551 138.2291 -42.8649)">
	<stop  offset="0" style="stop-color:#039BE5"/>
	<stop  offset="0.286" style="stop-color:#0393E5"/>
	<stop  offset="0.7226" style="stop-color:#037EE5"/>
	<stop  offset="1" style="stop-color:#036DE5"/>
</linearGradient>
<path class="st3" d="M58.6,451.9L58.6,451.9c-1.8-6.6,2.9-17.7,10.3-24.8l65.9-62.4c7.4-7.1,14.9-7.4,16.7-0.8h0
	c1.8,6.6-2.9,17.7-10.3,24.8l-65.9,62.4C67.8,458.2,60.3,458.5,58.6,451.9z"/>
<linearGradient id="SVGID_5_" gradientUnits="userSpaceOnUse" x1="212.6643" y1="536.8506" x2="277.2892" y2="424.9169" gradientTransform="matrix(0.946 0.3243 -0.3243 0.946 151.7915 -46.994)">
	<stop  offset="0" style="stop-color:#039BE5"/>
	<stop  offset="0.286" style="stop-color:#0393E5"/>
	<stop  offset="0.7226" style="stop-color:#037EE5"/>
	<stop  offset="1" style="stop-color:#036DE5"/>
</linearGradient>
<path class="st4" d="M181.8,532L181.8,532c-1.9-6.6,2.6-17.7,9.9-24.9l65-63.4c7.3-7.2,14.8-7.6,16.7-1v0c1.9,6.6-2.6,17.7-9.9,24.9
	l-65,63.4C191.1,538.1,183.6,538.6,181.8,532z"/>
<linearGradient id="SVGID_6_" gradientUnits="userSpaceOnUse" x1="114.1521" y1="549.008" x2="188.7855" y2="419.7391" gradientTransform="matrix(0.9593 0.2823 -0.2823 0.9593 132.0967 -39.9996)">
	<stop  offset="0" style="stop-color:#039BE5"/>
	<stop  offset="0.286" style="stop-color:#0393E5"/>
	<stop  offset="0.7226" style="stop-color:#037EE5"/>
	<stop  offset="1" style="stop-color:#036DE5"/>
</linearGradient>
<path class="st5" d="M88,518.8L88,518.8c-2.1-7.6,3-20.4,11.4-28.7l74.8-73c8.5-8.2,17-8.8,19.2-1.2h0c2.1,7.6-3,20.4-11.4,28.7
	l-74.8,73C98.7,525.9,90.1,526.4,88,518.8z"/>
<path class="st6" d="M40.5,573.2L40.5,573.2c-1.8-7.7,3.9-20.3,12.7-28.1l0,0c8.8-7.9,17.4-8,19.2-0.4l0,0
	c1.8,7.7-3.9,20.3-12.7,28.1l0,0C50.8,580.7,42.3,580.9,40.5,573.2z"/>
</svg>
